<?xml version="1.0" encoding="utf-8"?>
<!-- Generator: Adobe Illustrator 22.0.1, SVG Export Plug-In . SVG Version: 6.00 Build 0)  -->
<svg version="1.1" id="Layer_1" xmlns:amcharts="http://amcharts.com/ammap"
	 xmlns="http://www.w3.org/2000/svg" xmlns:xlink="http://www.w3.org/1999/xlink" x="0px" y="0px" viewBox="0 0 979.9 1196.9"
	 style="enable-background:new 0 0 979.9 1196.9;" xml:space="preserve">
<style type="text/css">
	.st0{fill:#CCCCCC;stroke:#FFFFFF;stroke-width:0.5;}
</style>
<defs>
	
	
		<amcharts:ammap  bottomLatitude="4.7388737" leftLongitude="-3.260786" projection="mercator" rightLongitude="1.1994743" topLatitude="11.175031">
		</amcharts:ammap>
</defs>
<g>
	<path id="GH-TV" class="st0" d="M704.1,450.6l-1.1-0.2l-1-0.3l-4.2-2.4l-0.9-0.3l-1-0.2l-1,0l-1.8,0.4l-4.4,1.8l-0.6,0.5l-0.6,0.7
		l-0.3,1.2l-0.1,1l0.7,0.8l0.5,0.8l0.3,0.9l0,1l-0.8,1.4l-1.2,3.1l-1.5,2.9l-3.6,4.7l-0.7,1.5l-0.3,1.4l0.2,1l0.3,1l0.4,0.8l1,1.5
		l2,1.8l0.6,0.6l0.4,0.8l0.2,1l-0.2,1.1l-0.6,0.9l-1.6,0.6H682l-1-0.3l-1.6-0.9l-0.9-0.3l-1,0.3l-1,0.8l-1.9,3l-1.3,2.8l-2,5.7
		l-0.3,1l-0.1,1v1l0.3,0.9l0.5,0.7l0.7,0.5l3.4,1.6l0.7,0.6l0.4,0.8l0.1,1l-0.5,0.9l-0.9,0.8l-1.8,0.6l-1.3,0.3l-1.1,0.6l-0.7,0.8
		l-0.4,1.5l0.1,1.1l0.7,1.9l0.4,2v1.1l-0.4,2l0.1,0.9l0.4,0.6l0.7,0.5l0.8,0.4l2,0.6l2,0.3l0.9,0l4.2-0.6l3.9-1l5.4-0.7l1.1,0.1
		l1,0.3l0.9,0.4l0.8,0.5l0.6,0.7l1.9,3l0.4,0.9l0.3,2.1l-0.1,1.1l-0.2,1l-0.7,0.7l-1.1,0.5l-5.6,0.2l-1.1,0.2l-0.9,0.6l-0.5,1.2
		l-0.1,1.1l1.2,7.4l0.4,0.8l0.1,0.8l0,1l-0.3,1l-1.7,1l-2.9,0.8l-7.2,0.8l-3.2,0l-2-0.2l-2.2-1.6l-3.9-3.8l-1.6-2l-2.6-2.5l-6.3-4.1
		l-2.9-1.3l-3.8-1.2l-4.4-0.8l-3.7,0.1l-8,2.8l-1.4,0.8l-1.8,1.3l-2.7,2.4l-0.9,1.3l-0.3,1.3l0.2,1l0,1.1l-0.2,1l-1.9,3.2l-0.4,1
		l-0.5,0.8l-1.4,0.5l-1,0.6l-0.8,1.3l-1.1,1.2l-1.4,0.9l-3,0.6l-1.7,0l-1.4-0.2l-0.9-0.3l-4.3-2l-1-0.3l-1.2,0l-6.3,2.1l-1.7,0.2
		h-1.4l-2-0.4l-1.1,0.5l-1.2,1.2l-3.6,7.9l-3.8,3.8l10.2,2.7l3.5,1.7l25,20.2l2.1,2.6l2.1,3.3L634,612l0.5,1.9l0.8,6.5l0.6,1.8
		l0.4,1l4.4,7l1.4,1.5l1.7,1.3l1.8,0.8l1.9,0.5l4,0.6l1.3,0.5l2.1,1.3l1,1.4l0.7,1.8l0.3,2.3l4.3,11.9l11.8,20.4l2.1,5.2l0.3,1
		l0.6,10.8l0.3,1.5l0.8,2.2l0.7,1.2l0.8,0.8l6.6,3.3l4.9,1.4l1.2,0.6l1.4,0.9l2.3,1.9l1,1.2l0.7,1.1l0.8,5.4l0,2.4l-0.7,5.5l-3,9.6
		l-0.2,2.1v1l0.8,5.7l0.8,9.7l-0.4,3.2l-0.5,0.8l-1.4,3.1l-1.1,3.6l-0.3,2v1.5l0.3,0.9l0.8,4.2l0.4,5.1l-0.2,2.9l-0.3,1.9l-0.5,0.9
		l-1.5,2.2l-2.5,2.5l-0.7,0.5l-3.2,3l-0.9,1.5l-1,2.1l-1.7,4.7L680,798l-0.1,1.8l0.6,1.9l0.8,1.6l0.5,0.7l0.7,0.6l0.8,0.5l2.7,1
		l1.7,0.8l1.4,1.1l1.2,1.3l1,1.5l0.7,1.7l1,7.8l-0.1,2l-0.3,1.4l-0.6,0.7l-0.6,0.6l-7.1,4.1l-0.7,0.6l-2.4,2.5l-0.5,0.7l-0.6,0.6
		l-0.5,0.7l-0.6,0.6l-0.5,0.7l-0.9,2.1l-2.8,10.6l-0.6,3.4l-0.1,2.3l0.5,0.7l0.9,0.3l5.3-0.4l0.9,0.2l0.9,0.3l0.8,0.5l0.6,0.6
		l0.4,0.8l0.5,1.9l0.7,4.2l0.3,1l0.3,0.8l1,1.5l1.3,1.2l2.3,1.4l0.8,0.9l0.8,1.2l0.7,2.5l0.1,1.6l-0.1,1.5l-5.2,15.8l-0.4,0.8
		l-1,1.5l-0.6,0.7l-0.6,0.6l-2.9,2.1l-3,1.8l-8.1,3.1l-0.8,1l1,1.9l1.2,3.5l0.4,3.2l-0.9,2.3l-1.3,2.4l-0.6,3.2l0.2,3l1.1,1.9
		l8.5,6.4l3.2,1l12.3-0.3l3.1,0.4l2.3,1.3l3.8,3.2l6.2,3.7l0.7,1.3l0.3,1.5l-0.5,16.5l1.4-2.7l0.6-0.8l1.3-1.3l3.4-2.5l3.2-1.7
		l1.8-0.6l1.8-0.4l1.2-0.1l0.1,0l14.6,0.7l14,3.2l2.5,1.2l1.5,1.1l1.8,1.9l6.3,17.3l2,2.5l2,1.5l2.5,1.6l3.9,1.5l2.6,1.3l1.5,1
		l0.7,0.6l0.6,0.7l0.5,0.9l0.3,1.3l-0.5,1l-0.6,0.7l-3.6,1.1l-3.8,2.6l0,0l9,0.7l34.3-3.9l7.3-2.5l5.7-5.4l1.6-3.4l1.9-8.4l0.3-3.7
		l0.8-3.5l4.4-8.8l2.1-3.2l9.1-9.8l6.2-4.8l8.1-4.4l1.2-0.4l0.1,0h0l0.5-6.4l-2.1-2.9l-14.9-1.7l-2.5-1.3l-1.9-2.2l-2.4-3.7
		l-1.4-1.6l-1.3-0.7l-1.3-0.6l-1.4-1l-2.8-4l-4.7-14.5l-13.7-0.1l-3.7-1l-2.3-1.8l-5.8-7.1l-4.5-2.9l-8.9-4.4l-3.8-3.9l-2.8-4.4
		l-2.2-4.3l-1.1-4.4l0.3-3.7l0.1-1.1l1.1-2.3l1.3-1.7l0.1-1.7l-2.3-2.3l-1.6-0.3l-5,0.2l-1.7-0.2l-1.6-2.9l-2.5-1.9l-2.4-2.2l-1-3.8
		l1.6-9.1l-0.2-2.9l-1.5-2.9l-2.6-2.5l-3.1-1.7l-3.1-0.6l-1.2-1.6l-5.2-9.7l-2.2-1.7l-1.7-1l-0.6-1.7l1.2-3.8l3.8-6.3l0.4-3
		l-2.1-3.8l-5.1-4l-2.1-2.8l2.6-0.8l2.6-0.2l7.6-2l2.3-1.3l3.4-6.2l0.1-7.9l-0.8-8.2l0.6-7.1l4.3-10.9l1.7-8.4l2.4-6.7l0.2-3.9
		l-2.9-11.9l-1.2-1.6l-6.6,2.5l-3.6,0.6l-3.3-0.4l-5.7-5l-2.9-8l-0.9-8.9l0.7-10.5l0.7-2.2l1.1-1.9l1.8-1.8l2.3-1.1l2.9-0.8l2.4-1.3
		l1-2.4l0-4.9l0.6-5.6l2.3-3.7l5.2,0.9l-0.5-3.5l0.4-9.5l-1.6-10.4l0.1-10.9l-0.1-0.9l-1.8-12l0.1-6.8l-0.1-3.5l-1.7-6.8l-0.7-8.5
		l-1-4.5l0.9-1.3l1.4-1.1l1-2.4l-0.3-2.5l-1.2-1.6l-1.4-1.3l-0.7-1.9l0.2-2.3l0.9-0.7l1.4-0.2l1.5-0.7l6-5.4l3-2l7.9-3.5l2.9-1.8
		l1.4-2.8l-0.7-4.5l-0.7-0.6l-2.1-0.3l-0.7-0.6l-0.1-0.9l0.1-1.8l-0.4-2.7l0-2.1l-0.4-1.9l-6.9-5.7l-2.3-6.9l-3.1-6.7l-11.8-5.6
		l-4.7-3.4l-4.3-4l-3.1-3.6l-7.2-4.9l-7.1-10l-5.3-11.4l-1.1-6.7h-0.1h-0.1l-7-1l-1.1,0.1l-5.7,1.2l-1.1,0.1H704.1z"/>
	<path id="GH-AA" class="st0" d="M775.2,994L775.2,994l3.8-2.6l3.6-1.1l0.6-0.7l0.5-1l-0.3-1.3l-0.5-0.9l-0.6-0.7l-0.7-0.6l-1.5-1
		l-2.6-1.3l-3.9-1.5l-2.5-1.6l-2-1.5l-2-2.5l-6.3-17.3l-1.8-1.9l-1.5-1.1l-2.5-1.2l-14-3.2l-14.6-0.7l-0.1,0l-1.2,0.1l-1.8,0.4
		l-1.8,0.6l-3.2,1.7l-3.4,2.5l-1.3,1.3l-0.6,0.8l-1.4,2.7l-7.8,8.9l-2.8,2.6l-2.4,1.5l-1,0.3l-1.4,0.1l-1.1-0.2l-1-0.4l-0.7-0.5
		l-1.9-1.8l-1.1-1.3l-2.4-3.7l-0.6-0.7l-0.8-0.8l-4.9-2.1l-0.8-0.5l-1.5-1l-1.3-1.2l-1-1.4l-2.4-5l-0.7-0.8l-1.1-0.7l-2.3-0.2h-2.5
		l-2.1,0.4l-1.3,0.4l-6.5,4.4l-2.1,1l-1.4,0.4l-0.6,0.1l-0.6-0.3l-1.2-1.4l-0.9-0.7l-1.1-0.6l-2-0.7l-1,0.2l-0.7,0.7l-2.9,10.5
		l-0.7,1.1l-1.4,1.1l-7.6,3.1l-1,0.6l-0.7,0.8l-2,4.2l-1.9,7l-1.7,3.5l-0.5,0.7l-0.5,0.7l-0.9,0.9l-1.3,1l-2.5,1.5l-1.6,0.5
		l-1.4,0.1l-1.9-0.6l-1.5-0.9l-0.7-0.6l-0.6-0.6l-0.9-0.7l-1.2-0.5l-2.1-0.3l-1.2,0.3l-1,0.5l-3.4,4.1l-1.1,0.8l-1.5,0.9l-3.1,1.5
		l-1.8,0.6l-1.5,0.3l-4.5-0.2l-1.8-0.3l-3.3-1.3l-0.8-0.4l-2.8-1l-1.6-0.9l-0.6-0.6l-0.3-0.8v-3.1l-1.1-0.7l-2-0.2l-7.8,0.6
		l-1.8,0.3l-1.5,0.5l-0.4,0.2l-0.5,0.3l-0.3,0.6l-0.2,0.6l-0.8,4l0,1.5l0.1,1l0.1,0.8l0.4,1.4l6.7,13.2l2.7,4l1.6,1.2l1.8,0.8l1,0.3
		l2.8,1.5l2.5,1.8l1.1,1.2l0.8,1l2.8,6.4l2.7,9.6h0l1.1-0.5l8.1-1l38.5-12.5l2.9-0.3l1.6-0.6l1.1-0.8l2.3-2.3l0.8-0.5l14.3-4.8
		l2.9-3l2-3.3l2.5-2.7l7-2l4.9-4.6l2.8-1.9l12-3.3l3.4-2.4l1.5-0.5l4.3-0.2l0.9-0.5l0.9-1l2.2-0.9l4.3-1l7.7-0.4L775.2,994z"/>
	<path id="GH-WP" class="st0" d="M278.7,1178.3l4.8-0.2l2.4-1l12.4-1.6l2.5-1l2.7-2.6l4.3-6.2l2.9-2.5l13.8-6.2l12.3-3.5l1.7-0.1
		l1.6-0.3l0.1-0.9l-0.3-1.2l0.4-1.3l5.2-5.7l2.2-1.7l12.3-6.1l0.7-0.7l1.1-1.3l0.4-1.4l-1.3-2.7l0.3-1.5l2.2-1.8l3.1-0.8l3.2,0.2
		l2.6,1.2l0.1-0.1l0,0l-1.5-11.7l0.1-1.9l0.7-4.4l0.6-2l0.8-1.8l3.5-6.6l1.1-1.3l0.7-0.6l0.7-0.5l0.8-0.4l0.8-0.3l1.8-0.5l0.9-0.1
		l2.5,0l1-0.1l1-0.2l0.8-0.3l0.8-0.4l0.7-0.5l0.6-0.6l2.2-2.7l5.4-4.2l0.6-0.6l0.1-1l-0.5-1.4l-1.9-2.1l-1.2-1.1l-7.3-4.6l-5.9-5.3
		l-2.3-2.7l-0.6-1l-0.6-1.3l-1.3-4l-0.6-1.3l-0.8-1l-1.5-1.5l-1.1-0.8l-1.1-0.6l-1.8-0.7l-1.5-1.1l-0.6-0.6l-2.9-3.5l-1.2-3.2
		l-0.5-2.1l-0.1-1.1l0.1-1.1l0.4-2.1l0.6-1.9l0.4-0.8l0.6-0.7l0.8-0.4l0.8-0.3l0.8-0.5l0.5-0.7l0.9-1.5l0.2-0.7l-0.1-0.8l-0.2-0.9
		l-1.7-2.6l-2.3-2.5l-2.4-2.1l-3.2-1.8l-1.7-0.8l-1.9-0.6l-2.2-0.4l-4.3-0.1l-1-0.2l-0.9-0.3l-0.8-0.4l-2.1-1.7l-0.8-0.5l-0.9-0.4
		l-1.1-0.2l-1.1,0l-2.1,0.2l-1.8,0.5l-6,2.4l-1,0.1l-1-0.1l-0.9-0.9l-0.7-1.6l-0.6-3.6l-0.1-1.9l0.2-1.6l1.1-2.9l1-3.9l0.2-2
		l-0.1-3.6l0.1-1.1l0.3-1l0.4-0.8l0.6-0.7l1.2-1.3l0.5-0.7l0.1-0.9l-0.4-1.1l-1.3-1l-2.3-1l-0.7-0.8l-0.4-1.1l-0.2-1.9l0.2-2.8
		l0.7-3.3l0.1-1.1l-0.4-1.6l-0.9-1.9l-2.4-3.4l-1.4-1.5l-1.1-1l-0.9-0.4l-4.2-1l-0.9-0.4l-0.8-0.5l-3.2-2.5l-0.6-0.6l-0.5-0.6
		l-8.1-11.8l-3.4-3.5l-0.7-0.5l-0.7-0.6l-2.7-1.4l-5.6-2.4l-0.8-0.4l-0.6-0.5l-0.7-0.8l-1.9-4.8l-0.6-1.1l-1.8-1.9l-1.5-1l-3.7-1.3
		l-1-0.2l-1.4-0.5l-2.9-1.4l-5.3-3.5l-0.7-0.7l-1.4-2.3l-0.5-1.4l-0.3-1.2l-0.2-2.3l0.1-2.3l0.3-2.2l0.3-1l0.9-1.1l1.4-1.1l3-1.6
		l4.9-2l2.2-1.6l2.9-2.7l1.3-1.8l0.9-2.7l-4.2,0.2l-1.4-0.2l-1.1-0.5l-1.1-1.3l-0.5-1.1l-0.4-1l-0.8-2.9l-0.4-0.9l-1.4-2.2l-0.6-0.6
		l-0.7-0.5l-0.9-0.4l-13.2-3.1l-1.6-0.8l-0.5-0.8l-0.2-0.9l-0.1-1.1l0.3-2.2l3.4-10.2v-1l-0.1-0.9l-0.1-0.6l-0.2-0.7l-0.5-0.6
		l-0.9-0.5l-1.4-0.2l-1.4,0.2l-3.9,1.3h-1.4l-1.1-0.3l-5.5-3.4l-1.7-0.8l-0.9-0.3l-1.1,0l-1,0.5l-1,0.9l-1,2.1l-0.5,1.4l-1.8,12.6
		l-0.5,2l-0.7,1.9l-0.9,1.8l-0.6,0.9l-2.3,2.3L226,885l-1.6,0.8l-0.9,0.3l-1.1,0.1l-1.3,0l-1.6-0.2l-1-0.6l-0.4-0.5l0.5-4.3l-1.4,0
		l-1.6-0.8l-2.4-1.7l-2-1.1l-0.9-0.3l-1.1-0.2l-4.9-0.3l-1-0.2l-1-0.4l-0.8-0.8l-8-17l-0.8-0.8l-1.1-0.8l-2.1-0.9l-3.6-1l-0.9-0.4
		l-0.9-0.6l-0.8-0.8l-1-1.3l-0.7-1.9l-0.8-3.6l-0.7-1l-1.1-0.9l-2.4-1.2l-1.7-0.4l-1.5-0.2l-6.8,0.6l-2.3,0l-2-0.5l-0.8-0.4l-7-5.4
		l-1.7-0.8L148,834l-0.9-0.5l-0.7-0.6l-0.6-0.9l0.1-1.3l-0.2-1.5l-0.4-1.8l-1.2-2.9l-0.4-1.8l-0.2-1.5l0.1-1.1l0.3-1l1.5-3.5
		l0.2-0.9l0-1l-0.6-1.9l-0.4-0.8l-0.3-1l-0.2-1l-0.1-3.2l-0.3-1.2l-2.8-6.2l-0.9-3.8l-4.3-7.9l-2-2.3l-2.6-2.3l-5.5-3l-2.7-1.1
		l-2-0.5l-1.9,0.4l-6.8,2.8l-0.9,0.2l-1,0l-2.2-0.2l-1.1-0.4l-1.1-0.6l-1.4-1.1l-0.8-0.8l-0.6-0.8l-1.9-3.4L100,770l-1.9-9.5
		l-0.2-0.6l-2.2,1.4L75,796.9l-3,7l-0.3,6.5l0.8,1.8l2.3,2.9l2.4,4.7l0.4,1.2l-3.5,9.9l-1,1.2l-3.3,1.8l-1.3,1.9l-0.3,3l14.2,63.8
		l2.1,2.6l0.5,0.6l5.3,4.8l3.8,10.1l5.4,30.1l2.6,6.5l6.9,12.7l2.2,6.5l0.5,6.5l-1.8,20.6l11.7-1l-1.8,11.3l1,4.7l4.2,2.4l3.5-0.4
		l5.8-3.5l2.9-1.2l12.8,3.3l2.3,1.9l1.4,2.4l0.7,2.9l0.4,9.4l3.2,12.9l4.9,11.5l0.8,3.2l-0.5,3.2l-1.8,2.3l-2.4,0.4l-6.1-1.1
		l-1.2,11.2l0.5,2.5l2.5,3.6l0.8,2.1l-0.1,1.5l-0.8,3.8l0.1,1.7l0.6,0.6l2.4,2l1,1.2l-1.7,3.4l-2.6,1.8l-4.1,0.6l-7.1-0.3h0
		l-3.9,1.8l-6.4,1l-5,2.1l0.5,4.9l-2,0.6l-3.7,1.6l-2.4,0.3l-1-0.7l-2.2-3.2l-1.1-1.1l-3.9-1.1l-12.8-0.1l-2,0.3l-1.7,0.7l-1.3,0.3
		l-0.8,3l2.9,0.7l24.9,7.7l25.9,4.6l23.4,1.8l29.6,10.1l30.4,6.3l18.6,7.3l1,1.1l0.8,1.4l0.3,1.3l0.7,1.6l1.7,1l3.8,1.6l7.7,6.1
		l1.7,1.8l-0.2,0.8l2,0.2l2.7,0.8l1.5,0.2l2.3,0.7l0.4,1.6l-0.2,2l0.5,1.8l1.3,1.2L278.7,1178.3z"/>
	<path id="GH-EP" class="st0" d="M672.6,740.9l-1.5-0.3l-2.1-0.8l-3.9-2l-1.8-0.7l-2-0.5l-45.4-1.8l-10.3,1.8l-3.2,1.2l-1.4,1.1
		l-1.3,1.2l-3.5,4.5l-1.1,1.2l-2.2,1.8l-2.2,1.3l-8.9,3l-2,0.9l-1.3,0.8l-1.2,1.3l-0.6,0.9l-2,2.2l-1.7,0.5l-24,0.5l-2.7,0.6l-2,1.8
		l-32.3,45.2l-1.5,1.3l-1.1,0.7l-0.9,0.3l-13,1.8l-3.9,1.5l-4.4,2.1l-1.8,1.3l-1.2,1.1l-0.7,1.8l-0.5,2l-0.1,1.1l0.1,1.1l0.2,1
		l0.3,0.9l0.9,1.5l1.1,1.4l1.3,1.2l4.2,3.3l0.6,0.6l0.6,0.7l1,1.5l0.8,1.6l0.5,1.9l0,1l-0.1,0.6l-0.6,1.2l-1.2,1.5l-5,5l-1,1.5
		l-0.4,0.8l-0.9,1.2l-23.3,24.2l-7.7,12.1l-2.7,7.2l-2.1,7.9l-0.4,2.5l-0.5,1.4l-1,2l-0.8,1.1l-0.7,0.8l-1.4,1.1l-4,2.3l-0.4,0.7
		l0.3,0.6l0.5,0.7l0.5,0.7l0.3,0.9l0.1,1v1.1l-0.3,2.2l-0.4,1.4l-2,3.4l-0.4,1l0.1,0.8l0.3,0.7l-0.1,1.8l0.4,0.6l0.8,0.2l0.8,0.5
		l0.5,0.7l-0.1,1.1l-0.7,0.6l-2.2,0.6l-0.6,0.7l-0.3,1l-0.2,1.1l-1.3,4l-0.5,1.2l-1.5,2.5l-1.4,3.8l-0.2,1.3v0.1l-0.2,1l-1.1,2.4
		l-0.2,0.8l0.1,0.8l0.4,0.5l0.6,0l0.8-0.1l0.9,0l0.6,0.4l0.6,0.6l0.1,2.4l-3.3,6.4l5.9,3.1l5.3,2l0.9,0.8l0.5,0.8l5.6,12.2l2.6,4.5
		l1,1l0.4,0.3l1.1,0.3l1.6,0.2l15.5-0.2l1.3,0.1l1.7,0.4l2.7,0.9l1.4,0.8l1.8,1.3l1.2,0.4l1.6,0.1l4.4-0.5l2.2-0.5l2-0.3l3.5,0.3
		l17.5,3.8l0.9,0.4l2.1,0.5l3.8,0l30.3-2.4l4.8,0.8l8.1,3.2l-0.4-1.4l-0.1-0.8l-0.1-1l0-1.5l0.8-4l0.2-0.6l0.3-0.6l0.5-0.3l0.4-0.2
		l1.5-0.5l1.8-0.3l7.8-0.6l2,0.2l1.1,0.7v3.1l0.3,0.8l0.6,0.6l1.6,0.9l2.8,1l0.8,0.4l3.3,1.3l1.8,0.3l4.5,0.2l1.5-0.3l1.8-0.6
		l3.1-1.5l1.5-0.9l1.1-0.8l3.4-4.1l1-0.5l1.2-0.3l2.1,0.3l1.2,0.5l0.9,0.7l0.6,0.6l0.7,0.6l1.5,0.9l1.9,0.6l1.4-0.1l1.6-0.5l2.5-1.5
		l1.3-1l0.9-0.9l0.5-0.7l0.5-0.7l1.7-3.5l1.9-7l2-4.2l0.7-0.8l1-0.6l7.6-3.1l1.4-1.1l0.7-1.1l2.9-10.5l0.7-0.7l1-0.2l2,0.7l1.1,0.6
		l0.9,0.7l1.2,1.4l0.6,0.3l0.6-0.1l1.4-0.4l2.1-1l6.5-4.4l1.3-0.4l2.1-0.4h2.5l2.3,0.2l1.1,0.7l0.7,0.8l2.4,5l1,1.4l1.3,1.2l1.5,1
		l0.8,0.5l4.9,2.1l0.8,0.8l0.6,0.7l2.4,3.7l1.1,1.3l1.9,1.8l0.7,0.5l1,0.4l1.1,0.2l1.4-0.1l1-0.3l2.4-1.5l2.8-2.6l7.8-8.9l0.5-16.5
		l-0.3-1.5l-0.7-1.3l-6.2-3.7l-3.8-3.2l-2.3-1.3l-3.1-0.4l-12.3,0.3l-3.2-1l-8.5-6.4l-1.1-1.9l-0.2-3l0.6-3.2l1.3-2.4l0.9-2.3
		l-0.4-3.2l-1.2-3.5l-1-1.9l0.8-1l8.1-3.1l3-1.8l2.9-2.1l0.6-0.6l0.6-0.7l1-1.5l0.4-0.8l5.2-15.8l0.1-1.5l-0.1-1.6l-0.7-2.5
		l-0.8-1.2l-0.8-0.9l-2.3-1.4l-1.3-1.2l-1-1.5l-0.3-0.8l-0.3-1l-0.7-4.2l-0.5-1.9l-0.4-0.8l-0.6-0.6l-0.8-0.5l-0.9-0.3l-0.9-0.2
		l-5.3,0.4l-0.9-0.3l-0.5-0.7l0.1-2.3l0.6-3.4l2.8-10.6l0.9-2.1l0.5-0.7l0.6-0.6l0.5-0.7l0.6-0.6l0.5-0.7l2.4-2.5l0.7-0.6l7.1-4.1
		l0.6-0.6l0.6-0.7l0.3-1.4l0.1-2l-1-7.8l-0.7-1.7l-1-1.5l-1.2-1.3l-1.4-1.1L686,806l-2.7-1l-0.8-0.5l-0.7-0.6l-0.5-0.7l-0.8-1.6
		l-0.6-1.9l0.1-1.8l0.5-2.3l1.7-4.7l1-2.1l0.9-1.5l3.2-3l0.7-0.5l2.5-2.5l1.5-2.2l0.5-0.9l0.3-1.9l0.2-2.9l-0.4-5.1l-0.8-4.2
		l-0.3-0.9v-1.5l0.3-2l1.1-3.6l1.4-3.1l0.5-0.8l0.4-3.2l-0.8-9.7l-8.4-3l-1.2-0.1l-1.3,0.1l-2.8,1.2l-3.2,2l-2.6,1.1l-1,0.2
		L672.6,740.9z"/>
	<path id="GH-CP" class="st0" d="M294.4,930.5l-0.9-1.1l-0.8-2.2l-2.6-14l0.4-1.2l0.5-0.9l0.6-0.6l0.4-0.8l0.2-1l-0.3-2.6l0.1-1.2
		l0.3-1l0.8-1.7l0.3-0.9l0.1-0.9l-0.1-0.8l-0.4-1.3l-2.1-1.3l-8.3-0.4l-0.9,2.7l-1.3,1.8l-2.9,2.7l-2.2,1.6l-4.9,2l-3,1.6l-1.4,1.1
		l-0.9,1.1l-0.3,1l-0.3,2.2l-0.1,2.3l0.2,2.3l0.3,1.2l0.5,1.4l1.4,2.3l0.7,0.7l5.3,3.5l2.9,1.4l1.4,0.5l1,0.2l3.7,1.3l1.5,1l1.8,1.9
		l0.6,1.1l1.9,4.8l0.7,0.8l0.6,0.5l0.8,0.4l5.6,2.4l2.7,1.4l0.7,0.6l0.7,0.5l3.4,3.5l8.1,11.8l0.5,0.6l0.6,0.6l3.2,2.5l0.8,0.5
		l0.9,0.4l4.2,1l0.9,0.4l1.1,1l1.4,1.5l2.4,3.4l0.9,1.9l0.4,1.6l-0.1,1.1l-0.7,3.3l-0.2,2.8l0.2,1.9l0.4,1.1l0.7,0.8l2.3,1l1.3,1
		l0.4,1.1l-0.1,0.9l-0.5,0.7l-1.2,1.3l-0.6,0.7l-0.4,0.8l-0.3,1l-0.1,1.1l0.1,3.6l-0.2,2l-1,3.9l-1.1,2.9l-0.2,1.6l0.1,1.9l0.6,3.6
		l0.7,1.6l0.9,0.9l1,0.1l1-0.1l6-2.4l1.8-0.5l2.1-0.2l1.1,0l1.1,0.2l0.9,0.4l0.8,0.5l2.1,1.7l0.8,0.4l0.9,0.3l1,0.2l4.3,0.1l2.2,0.4
		l1.9,0.6l1.7,0.8l3.2,1.8l2.4,2.1l2.3,2.5l1.7,2.6l0.2,0.9l0.1,0.8l-0.2,0.7l-0.9,1.5l-0.5,0.7l-0.8,0.5l-0.8,0.3l-0.8,0.4
		l-0.6,0.7l-0.4,0.8l-0.6,1.9l-0.4,2.1l-0.1,1.1l0.1,1.1l0.5,2.1l1.2,3.2l2.9,3.5l0.6,0.6l1.5,1.1l1.8,0.7l1.1,0.6l1.1,0.8l1.5,1.5
		l0.8,1l0.6,1.3l1.3,4l0.6,1.3l0.6,1l2.3,2.7l5.9,5.3l7.3,4.6l1.2,1.1l1.9,2.1l0.5,1.4l-0.1,1l-0.6,0.6l-5.4,4.2l-2.2,2.7l-0.6,0.6
		l-0.7,0.5l-0.8,0.4l-0.8,0.3l-1,0.2l-1,0.1l-2.5,0l-0.9,0.1l-1.8,0.5l-0.8,0.3l-0.8,0.4l-0.7,0.5l-0.7,0.6l-1.1,1.3l-3.5,6.6
		l-0.8,1.8l-0.6,2l-0.7,4.4l-0.1,1.9l1.5,11.7l0,0v0l3-2.2l4.1-1.5l12.5-1.8l6.5-3.2l3.3-1.1l1.8-0.1l3.7,0.2l1.8-0.1l1.9-0.8
		l4.2-2.5l1.9-0.5l11.7-0.3l3.7-0.8l7.1-3.2l3.7-2.2l1.6-1.6l1.9-2.6l18.7-8.1l2.9-0.8l3-0.3l2.2-1.8l1.4-0.4l0.6,1.6l0.9,1.6
		l2.1,0.1l4.3-1.1l4.4-0.3l1.7-0.6l1.2-1.6l2.6,2.3l4.1,0.2l13.4-1.9l2.7-1.7l4.3-5l10.5-8.6l2.3-0.9l9.3-6.5l1.5,2.6l3-1l2.9-2.2
		l1.3-1.3l2.1,0l12.6-3.1l6.4-4l2.4-2.5l0.9-2.8l1.4-2l13.2-11.1l2.2-1.1l-2.7-9.6l-2.8-6.4l-0.8-1l-1.1-1.2l-2.5-1.8l-2.8-1.5
		l-1-0.3l-1.8-0.8l-1.6-1.2l-2.7-4l-6.7-13.2l-8.1-3.2l-4.8-0.8l-30.3,2.4l-3.8,0l-2.1-0.5l-0.9-0.4l-17.5-3.8l-3.5-0.3l-2,0.3
		l-2.2,0.5l-4.4,0.5l-1.6-0.1l-1.2-0.4l-1.8-1.3l-1.4-0.8l-2.7-0.9l-1.7-0.4l-1.3-0.1l-15.5,0.2l-1.6-0.2l-1.1-0.3l-0.4-0.3l-1-1
		l-2.6-4.5l-5.6-12.2l-0.5-0.8l-0.9-0.8l-5.3-2l-5.9-3.1l-0.2,0.9l-0.2,0.3l-0.4,0.4l-1.2,0.8l-0.3,0.9l-0.2,0.9l-0.2,0.6l-0.5-0.1
		l-0.5-0.6l-0.6-0.3l-0.9,0.2l-1.5,1l-0.8,0.4l-0.9,0.3l-1,0l-0.8-0.1l-0.5-0.9l-0.4-0.9l-0.3-1l-0.4-0.8l-0.7-0.4l-1.2,0.2l-1,0.3
		l-1,0l-1-0.4l-1.2-0.9l-4.1-1.1l-1.5,0l-1,0.3l-0.6,0.6l-0.8,0.3l-0.9,0.2l-1,0l-3.4,0.6l-0.6,0.7l-0.5,0.7l-0.5,0.5l-1.6,0.3
		l-0.7,0.3l-0.8,0.3l-2,0l-1.7,0.4l-0.4,0.6l0.1,0.7l0.3,0.7l0.1,0.9l-1,2.4l-0.5,0.7l-0.8,0.3l-0.9-0.1l-1.6-0.6l-1.6-0.8l-2.9-1.7
		l-0.7-1.2l-0.1-0.9l0.7-0.4l0.8-0.1l0.7-0.2l0.4-0.6l0-0.8l-0.4-1l-0.7-1l-1.4-1.4l-1.1-0.7L378,965l-1.7-0.6l-1,0.1l-0.9,0.2
		l-1,0.1l-1.9-0.1l-1.7,0.5l-1,0l-1.4-0.5l-2.2-0.1l-1.9,0.4l-4.1,0.3l-2,0.4l-1.2,0l-0.9,0.3l-1.2,0.1l-1.6-0.4l-2.7-1.4l-1.5-0.6
		l-1.2-0.7l-0.9-1.4l-0.9-0.9l-4.9-2l-2-0.1l-2.5-0.5l-0.6-0.6l-0.5-1.1l-0.6-0.7l-3.9-2l-0.8-0.7l-0.3-1.3l0-0.9l0-0.6l0.2-1
		l0.3-0.8l0-0.9l-0.4-0.8l-2.4-1.1l-1.9-0.2l-0.9,0.1l-0.7,0.3l-1.1,1.1l-0.7,0.4l-0.8,0.3l-1.2,0l-1.5-0.2l-2.3-1.1l-1.2,0
		l-0.8,0.4l-0.4,0.8l-0.5,0.6l-0.9,0l-1.1-0.3l-1.6-1.5l-2.9-3.7l-0.7-0.7l-0.7-0.2l-0.8,0l-1.1-0.9l-1.1-1.9l-2.6-7.1l-0.9-1.5
		l-1.1-0.5l-0.9,0.1l-1.4,0.5L294.4,930.5z"/>
	<path id="GH-BA" class="st0" d="M201.2,456.7l-7.2-7.9l-3.8-2l-1.4-0.3l-0.5-0.3l-0.5-0.8l-1.1,0.6l0.9,2.8l8.3,50.9l8.3,50.9
		l-1.2,2.8l-8.1,4.8l-2.4,0.8l-2.1-0.2l-2.3-1.1l-1.5-0.1l-1.2,1.1l-1.3,2.4l-0.8,2.9l0.4,2.3l2.4,5.2l1.2,4.3l-0.2,3.2l-1.8,2.3
		l-3.7,1.9l-10.7,3.6l-3.3,2.4l-8.2,9.5l-2.9,2.5l-0.3-0.6l-0.9-1l-1.2-0.8l-1.1,0.1l-0.5,1.3l-0.8,13.5l-0.6,2l-1.4,1.5l-4,2.4
		l-1.5,1.5L144,622l0.5,2.3l0,1l-0.7,1.2l-1.8,2.2l-0.7,1.2l-13,27.9l-2.4,7.3l-8.8,55.5l0.2,2.1l1.1,2.5l1.2,1.5l0.8,1.5l-0.1,2.5
		l-1.6,3.5l-8.2,10.3l-0.9,1.8l-1.5,9l-0.9,1.3l-8.9,2.9l-0.2,0.1l-0.1,0.1l0.2,0.6l1.9,9.5l1.2,3.7l1.9,3.4l0.6,0.8l0.8,0.8
		l1.4,1.1l1.1,0.6l1.1,0.4l2.2,0.2l1,0l0.9-0.2l6.8-2.8l1.9-0.4l2,0.5l2.7,1.1l5.5,3l2.6,2.3l2,2.3l4.3,7.9l0.9,3.8l2.8,6.2l0.3,1.2
		l0.1,3.2l0.2,1l0.3,1l0.4,0.8l0.6,1.9l0,1l-0.2,0.9l-1.5,3.5l-0.3,1l-0.1,1.1l0.2,1.5l0.4,1.8l1.2,2.9l0.4,1.8l0.2,1.5l-0.1,1.3
		l0.6,0.9l0.7,0.6l0.9,0.5l4.9,1.3l1.7,0.8l7,5.4l0.8,0.4l2,0.5l2.3,0l6.8-0.6l1.5,0.2l1.7,0.4l2.4,1.2l1.1,0.9l0.7,1l0.8,3.6
		l0.7,1.9l1,1.3l0.8,0.8l0.9,0.6l0.9,0.4l3.6,1l2.1,0.9l1.1,0.8l0.8,0.8l8,17l0.8,0.8l1,0.4l1,0.2l4.9,0.3l1.1,0.2l0.9,0.3l2,1.1
		l2.4,1.7l1.6,0.8l1.4,0l0.3-1.8V878l-0.3-0.9l-0.6-0.6l-1.9-0.7l-0.7-0.5l-0.4-0.7l0-0.9l0.4-0.8l1-1.2l0-0.8l-0.7-1.3l0.1-0.7
		l1.4-2.2l0.6-1.9l0.4-0.9l0.6-0.8l1-0.8l0.9-2l0.5-0.9l0.7-0.7l1-0.8l1.2-1.6l0.6-0.6l0.7-0.5l0.5-0.7l0.7-1.8l0.6-0.8l-0.1-0.8
		l-0.3-0.8l-0.9-1.5l-0.2-0.9l0.2-0.9l0.4-0.8l1-1.4l0.1-0.8l-0.3-0.7l-0.5-0.6l-2.3-1.4l-0.6-0.6l-0.3-0.9l-0.3-3.2l-0.4-0.8
		l-0.7-0.5l-1.7-0.7l-0.5-0.6l-0.2-1l0.1-1.1l0.6-3l0.1-1l0.2-0.8l0.5-0.5l1.4,0.1l4.5,1l2.4,0.2l1.7-0.3l2-0.5l3.7-1.4l1.8-0.9
		l1.2-0.8l0.6-0.7l0.5-0.7l0.9-1.8l0.7-2l0.2-1l1.3-10.5l0.6-1.9l0.4-0.8l0.6-0.8l0.6-0.6l0.9-0.6l1.1-0.6l1.6-0.7l1-0.6l0.7-0.6
		l0.2-0.8l-0.3-0.8l-0.5-0.8l-0.7-0.7l-0.7-0.5l-0.9-0.4l-2.1-0.6l-3.5-0.4l-9.1-0.2l-6.4,1.8l-1.1,0.1l-1-0.1l-0.9-0.4l0-0.6
		l0.2-0.8l0.3-0.9l0.6-0.7l0.7-0.5l1.7-0.8l0.8-0.5l2.1-1.7l0.6-0.6l1-1.4l1.3-1.1l0.6-0.7l0.4-0.9l0.4-0.8l0.5-0.7l0.5-0.7l0.2-0.8
		l-0.1-2.9l0.2-0.9l0.8-1.6l0.2-0.8l0.4-0.7l0-2l0.3-0.9l0.4-0.8l11.3-12.5l2.2-1.5l1.2-0.4l1.4-0.1l2.6,0.4l1.2,0.6l0.8,0.8
		l0.3,0.9l0.5,1.9l0.4,0.9l0.5,0.7l1.8,0.2l21.9-1.2l3.5-1.2l4.9-2.8l4.9-3.6l2.4-2.7l4.2-5.7l1.9-1.9l1.2-0.6l1.8-0.5l3.8-0.4
		l1.9-0.4l1.4-0.4l0.7-0.5l0.5-0.7l1.3-3.6l0.2-0.9l-0.5-2.9l0.1-1l0.3-0.9l1.4-2.4l0.2-0.9l0-0.6l-0.5-0.4l-8.8-2.2l-1.8-0.7
		l-1.5-1l-4.7-5.1l-6.8-5.6l-0.7-0.4l-0.8-0.1l-0.6,0.1l-6.7,1.3l-1,0l-0.9-0.3l-0.8-0.4l-0.7-0.6l-4-4.7l-0.7-0.5l-0.9-0.4l-1-0.2
		H276l-2.2,0.2l-2.1-0.3l-0.9-0.3l-0.8-0.4l-0.5-0.3l-0.1-0.6l0.1-0.9l0.2-1l0.7-1.7l0.3-0.9v-3.2l0.2-1l0.3-0.9l1.1-1.3l0.4-0.8
		l0.6-2l0.4-0.9l0.4-0.8l0.3-1l0.2-1.1l0.3-0.9l1.4-0.5l2.4,0l8.5,1.3l2.6-0.3l1.1-0.5l1.5-1.2l1.2-0.3l4.4,0.1l1.5-0.2l1.4-0.1
		l1,0.2l2,1.2l1.2,0.4l1.7,0.2l6.7-0.2l1-0.2l1.8-0.7l4-1l1.2-0.1l1.2,0.2l1.5,0.9l0.7,1l0.4,1.1l0.4,8l0.4,2l0.4,0.8l0.5,0.7
		l1.6,0.8l2.9,0.9l4,2.2l2.1,1.7l1.7,2l0.6,0.6l0.9,0.5l1.1,0.2l1.8-0.3l1.2-0.3l3.7-1.4l1-0.2l1.1-0.1l1.3,0.1l2.8,1.3l1.4,0.4
		l1.7,0.1l3-0.4l1.4-0.6l1-0.7l1.2-1.3l2.8-4.6l1.9-1.9l1.5-0.9l0.9-0.3l1.3-0.1l4.2-0.1l1.8-0.3l2-0.7l0.6-1l0.2-1.1l-0.1-1.1
		l-1-3.9l-1.4-3.5l-0.3-0.9l0-0.9l0.3-0.7l0.2-0.4l0.5-0.6l5.3-3.9l7.3-4.3l1.4-1.1l2.2-2.8l5.9-9.4l1.2-1.3l0.7-0.6l1.6-0.9
		l0.9-0.4l0.9-0.3l1-0.1l1.3,0.2l1.6,0.6l2.6,1.6l1.2,1.1l0.9,1l0.8,1.6l1.3,3.6l0.3,1.9l0.4,8.8l0.4,1.8l0.7,1.7l0.4,0.8l1,1.5
		l1,1.1l1,0.8l1.4,0.5l2,0.5l4.2,0.5l3.9,0.1l4-0.6l3.5,0l1-0.2l1-0.3l0.8-0.4l0.9-0.3l2-0.3l1-0.3l1.1-0.2l1.7-0.1l2.7-0.6l2-0.1
		l3.3-0.8l0.7-0.5l0.5-0.7l0.7-1.9l0.4-0.8l0.5-0.7l1.3-1.2l2.3-1.5l0.6-0.7l1-1.5l0.5-0.6l1.1-0.4l1.6,0l5.1,0.7l0.9,0.4l1.6,1.7
		l0.9,0.5l1.4,0l2.2-0.5l0.9,0l0.9,0.3l1.4,1.8l0.8,0.7l0.9,0.4l1.7,0l2.4-0.3l2.1,0.1l0.9-0.1l1.3-1.1l0.9-0.4l1.2-0.2l1.6,0
		l1.2-0.1l1.1,0.2l1.9,1.1l1.6,0.7l2.5,0.6l1.3,0.2l0.9,0.4l0.3,0.7l0.5,0.6l0.8,0.3l1.1-0.3l0.7-0.6l0.6-0.8l0.9-1.7l0.5-0.5
		l0.7-0.1l1.1,0.9l1.3,0.2l1-0.1l2.7-2.4l1.6-0.9l3.7-1.3l0.8-0.4l0.7-0.5l1.4,0.3l2.1,1.2l4.3,3.7l3.1,3.3l4.1,6.7l3.2,7.8l1.8,3.1
		l1.2,1.3l1.1,0.8l1.6,0.8l5.5,1.7l18.7,3.3l25.3,9.3l1,0.5l1,0.6l3.5,4.5l8,14.2l45.4,1.8l2,0.5l1.8,0.7l3.9,2l2.1,0.8l1.5,0.3
		l1.3,0l1-0.2l2.6-1.1l3.2-2l2.8-1.2l1.3-0.1l1.2,0.1l8.4,3l-0.8-5.7v-1l0.2-2.1l3-9.6l0.7-5.5l0-2.4l-0.8-5.4l-0.7-1.1l-1-1.2
		l-2.3-1.9l-1.4-0.9l-1.2-0.6l-4.9-1.4l-6.6-3.3l-0.8-0.8l-0.7-1.2l-0.8-2.2l-0.3-1.5l-0.6-10.8l-0.3-1l-2.1-5.2l-11.8-20.4
		l-4.3-11.9l-0.3-2.3L656,638l-1-1.4l-2.1-1.3l-1.3-0.5l-4-0.6l-1.9-0.5l-1.8-0.8l-1.7-1.3l-1.4-1.5l-4.4-7l-0.4-1l-0.6-1.8
		l-0.8-6.5L634,612l-7.7-18.2l-2.1-3.3l-2.1-2.6l-25-20.2l-3.5-1.7l-10.2-2.7l-1.9,0.6l-3.2,0.2l-7.3-1.1l-3.3-1.2l-10-5.8
		l-18.6-15.1l-0.5-0.7l-0.6-0.7l-0.5-0.7l-0.6-0.6l-2.1-2.8l-3-3.1l-1.4-1.1l-0.8-0.4l-1-0.3l-1.2-0.2l-4,0.3l-4,0.8l-1.8,0.1
		l-2.3-0.1l-3.5-0.6l-2.2-0.1l-1,0.1l-0.8,0.1l-0.6,0.2l-0.5,0.3l-0.6,0.5l-1.2,1.3l-2.3,3l-1.2,1.3l-1.3,1.2l-0.8,0.5l-0.8,0.4
		l-2.6,0.8l-1.7,0.8l-1.6,1l-1.5,1.2l-0.5,0.6l-0.5,0.7l-0.5,0.8l-2.9,7.6l-0.9,1.6l-1.1,1.4l-2.6,2.5l-1.4,1l-0.9,0.4l-5.7,1.4
		l-1.6,0.7l-0.8,0.5l-0.7,0.6l-0.5,0.8l-0.4,0.8l-0.3,0.9l-0.2,1l-0.1,1.1v1.2l0.4,2l0.8,1.6l1.9,3.1l0.7,1.6l0.3,0.9l0.2,1l0.1,4.4
		l-0.2,1.2l-0.3,1.1l-0.6,0.9l-0.8,0.6l-0.9,0.4l-0.7,0.5l-0.6,0.4l-0.3,0.4l-1.5,3l-1.1,1.4l-0.9,1.5l-0.6,0.5l-0.9-0.2l-1.4-1
		l-1.2-0.7l-1.9-0.5l-1.3-0.7l-1-1.6l-19.1-53.7l-1.9-3.3l-2.4-3.2l-4.9-3.2l-1.8-1.7l-0.9-1.3l0.2-0.9l0.4-0.8l0.5-0.8l1.1-1.5
		l1.3-1.2l0.7-0.5l1.3-1.2l0.5-0.6l0.6-0.8l0.4-0.8l0.3-1l0.2-1.1l0.1-6l0.2-1.1l0.3-1l0.9-1.7l1.1-1.4l9.2-8.3l1.1-1.3l1.9-3.5
		l0.7-1.8l0.2-1v-1l-0.1-0.9l-0.7-2.9l-2.6-6.1l-0.9-4l-1-2.8l-0.9-0.7l-1.5-0.4h-3.8l-2.7-0.2l-3.8-0.8l-3.1-1l-1.5-0.8l-9-6
		l-2.6-2.2l-1.6-1.8l-0.7-0.6l-1.3-1.2l-0.7-0.6l-1.7-0.8l-2-0.5l-2.2-0.1l-9.6,0.4l-4.4,0.6l-2.9,1.9l-0.6,0.6l-0.6,0.7l-0.5,0.8
		l-0.4,0.9l-0.3,0.9l-1,5.3l-0.4,0.9l-0.6,0.7l-0.7,0.6l-1.6,0.9l-3.4,1.5l-2,0.5l-4.4,0.5l-1.8-0.1l-10.7-2.1l-1.4,0l-2.2,0.6
		l-1.3,0.6l-0.9,0.7l-0.5,0.7l-0.4,0.8l-0.6,1.9l-0.4,0.9l-0.6,0.7l-1.3,1.1l-2.3,0.6l-5.3,2.4l-13.4-4.3l-7.3,3.2l-2.3,3.1
		l-1.5,3.5l-0.8,3.8l-0.2,3.9l0.5,10.9l-0.5,3.4L315,506l-1,1.8l-2.5,3l-0.9,1.7l0.3,1.6l0.8,1.5l0.4,1.4l0.4,3.3l1,3.1l1.5,2.5
		l1.9,1.6l6.8,1.2l6.9-0.6l5.6,1.3l3,6.8l0.1,3.3l-0.6,3.2l-1.8,2.5l-3.4,1l-3.9-0.9l-7.2-3.5l-4.4-0.5l-3.7,1.8l-2.9,3.4l-2.2,3.3
		l-1.5,1.5l-3,5l-1.1,1.2l-0.8,0.5l-17.1,3.5l-7.8,0.1l-6.5-1.6l-3.1-3l-4.6-7.8l-5.5-2.9l-5.1-6.3l-2.5-2.4l-2.7-1.5l-2.4-1.8
		l-1.7-2.4l-1.4-11.4l-1.7-6.5l-2.2-4l-0.3-1.6l-0.8-1.5l-3.4-1.1l-0.8-1.2l-1.1-2.7l-2.2-2.7l-1.4-3l1.1-3.4l-3.2-6.3l-0.4-1.9
		l-1-1.5l-4.3-2.6l-1-2l-1.5-4.1l-6.7-5.2l-5.2-9.9l-2.5-2.5l-0.7-0.3l-0.9-0.1l-0.7,0.1L201.2,456.7z"/>
	<path id="GH-AH" class="st0" d="M434.2,686.4l-3.9-0.1l-4.2-0.5l-2-0.5l-1.4-0.5l-1-0.8l-1-1.1l-1-1.5l-0.4-0.8l-0.7-1.7l-0.4-1.8
		l-0.4-8.8l-0.3-1.9l-1.3-3.6l-0.8-1.6l-0.9-1l-1.2-1.1l-2.6-1.6l-1.6-0.6l-1.3-0.2l-1,0.1l-0.9,0.3l-0.9,0.4l-1.6,0.9l-0.7,0.6
		l-1.2,1.3l-5.9,9.4l-2.2,2.8l-1.4,1.1l-7.3,4.3l-5.3,3.9l-0.5,0.6l-0.2,0.4l-0.3,0.7l0,0.9l0.3,0.9l1.4,3.5l1,3.9l0.1,1.1l-0.2,1.1
		l-0.6,1l-2,0.7l-1.8,0.3l-4.2,0.1l-1.3,0.1l-0.9,0.3l-1.5,0.9l-1.9,1.9l-2.8,4.6l-1.2,1.3l-1,0.7l-1.4,0.6l-3,0.4l-1.7-0.1
		l-1.4-0.4l-2.8-1.3l-1.3-0.1l-1.1,0.1l-1,0.2l-3.7,1.4l-1.2,0.3l-1.8,0.3l-1.1-0.2l-0.9-0.5l-0.6-0.6l-1.7-2l-2.1-1.7l-4-2.2
		l-2.9-0.9l-1.6-0.8l-0.5-0.7l-0.4-0.8l-0.4-2l-0.4-8l-0.4-1.1l-0.7-1l-1.5-0.9l-1.2-0.2l-1.2,0.1l-4,1l-1.8,0.7l-1,0.2l-6.7,0.2
		l-1.7-0.2l-1.2-0.4l-2-1.2l-1-0.2l-1.4,0.1l-1.5,0.2l-4.4-0.1l-1.2,0.3l-1.5,1.2l-1.1,0.5l-2.6,0.3l-8.5-1.3l-2.4,0l-1.4,0.5
		l-0.3,0.9l-0.2,1.1l-0.3,1l-0.4,0.8l-0.4,0.9l-0.6,2l-0.4,0.8l-1.1,1.3l-0.3,0.9l-0.2,1v3.2l-0.3,0.9l-0.7,1.7l-0.2,1l-0.1,0.9
		l0.1,0.6l0.5,0.3l0.8,0.4l0.9,0.3l2.1,0.3l2.2-0.2h2.2l1,0.2l0.9,0.4l0.7,0.5l4,4.7l0.7,0.6l0.8,0.4l0.9,0.3l1,0l6.7-1.3l0.6-0.1
		l0.8,0.1l0.7,0.4l6.8,5.6l4.7,5.1l1.5,1l1.8,0.7l8.8,2.2l0.5,0.4l0,0.6l-0.2,0.9l-1.4,2.4l-0.3,0.9l-0.1,1l0.5,2.9l-0.2,0.9
		l-1.3,3.6l-0.5,0.7l-0.7,0.5l-1.4,0.4l-1.9,0.4l-3.8,0.4l-1.8,0.5l-1.2,0.6l-1.9,1.9l-4.2,5.7l-2.4,2.7l-4.9,3.6l-4.9,2.8l-3.5,1.2
		l-21.9,1.2l-1.8-0.2l-0.5-0.7l-0.4-0.9L260,760l-0.3-0.9l-0.8-0.8l-1.2-0.6l-2.6-0.4l-1.4,0.1l-1.2,0.4l-2.2,1.5l-11.3,12.5
		l-0.4,0.8l-0.3,0.9l0,2l-0.4,0.7l-0.2,0.8l-0.8,1.6l-0.2,0.9l0.1,2.9l-0.2,0.8l-0.5,0.7l-0.5,0.7l-0.4,0.8l-0.4,0.9l-0.6,0.7
		l-1.3,1.1l-1,1.4L231,790l-2.1,1.7l-0.8,0.5l-1.7,0.8l-0.7,0.5l-0.6,0.7l-0.3,0.9l-0.2,0.8l0,0.6l0.9,0.4l1,0.1l1.1-0.1l6.4-1.8
		l9.1,0.2l3.5,0.4l2.1,0.6l0.9,0.4l0.7,0.5l0.7,0.7l0.5,0.8l0.3,0.8l-0.2,0.8l-0.7,0.6l-1,0.6l-1.6,0.7l-1.1,0.6l-0.9,0.6l-0.6,0.6
		l-0.6,0.8l-0.4,0.8l-0.6,1.9l-1.3,10.5l-0.2,1l-0.7,2l-0.9,1.8l-0.5,0.7l-0.6,0.7l-1.2,0.8l-1.8,0.9l-3.7,1.4l-2,0.5l-1.7,0.3
		l-2.4-0.2l-4.5-1l-1.4-0.1l-0.5,0.5l-0.2,0.8l-0.1,1l-0.6,3l-0.1,1.1l0.2,1l0.5,0.6l1.7,0.7l0.7,0.5l0.4,0.8l0.3,3.2l0.3,0.9
		l0.6,0.6l2.3,1.4l0.5,0.6l0.3,0.7l-0.1,0.8l-1,1.4l-0.4,0.8l-0.2,0.9l0.2,0.9l0.9,1.5l0.3,0.8l0.1,0.8l-0.6,0.8l-0.7,1.8l-0.5,0.7
		l-0.7,0.5l-0.6,0.6l-1.2,1.6l-1,0.8l-0.7,0.7l-0.5,0.9l-0.9,2l-1,0.8l-0.6,0.8l-0.4,0.9l-0.6,1.9l-1.4,2.2l-0.1,0.7l0.7,1.3l0,0.8
		l-1,1.2l-0.4,0.8l0,0.9l0.4,0.7l0.7,0.5l1.9,0.7l0.6,0.6l0.3,0.9v0.8l-0.3,1.8l-0.5,4.3l0.4,0.5l1,0.6l1.6,0.2l1.3,0l1.1-0.1
		l0.9-0.3l1.6-0.8l0.7-0.5l2.3-2.3l0.6-0.9l0.9-1.8l0.7-1.9l0.5-2l1.8-12.6l0.5-1.4l1-2.1l1-0.9l1-0.5l1.1,0l0.9,0.3l1.7,0.8
		l5.5,3.4l1.1,0.3h1.4l3.9-1.3l1.4-0.2l1.4,0.2l0.9,0.5l0.5,0.6l0.2,0.7l0.1,0.6l0.1,0.9v1l-3.4,10.2l-0.3,2.2l0.1,1.1l0.2,0.9
		l0.5,0.8l1.6,0.8l13.2,3.1l0.9,0.4l0.7,0.5l0.6,0.6l1.4,2.2l0.4,0.9l0.8,2.9l0.4,1l0.5,1.1l1.1,1.3l1.1,0.5l1.4,0.2l4.2-0.2
		l8.3,0.4l2.1,1.3l0.4,1.3l0.1,0.8l-0.1,0.9l-0.3,0.9l-0.8,1.7l-0.3,1l-0.1,1.2l0.3,2.6l-0.2,1l-0.4,0.8l-0.6,0.6l-0.5,0.9l-0.4,1.2
		l2.6,14l0.8,2.2l0.9,1.1l0.6,0l1.4-0.5l0.9-0.1l1.1,0.5l0.9,1.5l2.6,7.1l1.1,1.9l1.1,0.9l0.8,0l0.7,0.2l0.7,0.7l2.9,3.7l1.6,1.5
		l1.1,0.3l0.9,0l0.5-0.6l0.4-0.8l0.8-0.4l1.2,0l2.3,1.1l1.5,0.2l1.2,0l0.8-0.3l0.7-0.4l1.1-1.1l0.7-0.3l0.9-0.1l1.9,0.2l2.4,1.1
		l0.4,0.8l0,0.9l-0.3,0.8l-0.2,1l0,0.6l0,0.9l0.3,1.3l0.8,0.7l3.9,2l0.6,0.7l0.5,1.1l0.6,0.6l2.5,0.5l2,0.1l4.9,2l0.9,0.9l0.9,1.4
		l1.2,0.7l1.5,0.6l2.7,1.4l1.6,0.4l1.2-0.1l0.9-0.3l1.2,0l2-0.4l4.1-0.3l1.9-0.4l2.2,0.1l1.4,0.5l1,0l1.7-0.5l1.9,0.1l1-0.1l0.9-0.2
		l1-0.1l1.7,0.6l2.9,0.5l1.1,0.7l1.4,1.4l0.7,1l0.4,1l0,0.8l-0.4,0.6l-0.7,0.2l-0.8,0.1l-0.7,0.4l0.1,0.9l0.7,1.2l2.9,1.7l1.6,0.8
		l1.6,0.6l0.9,0.1l0.8-0.3l0.5-0.7l1-2.4l-0.1-0.9l-0.3-0.7l-0.1-0.7l0.4-0.6l1.7-0.4l2,0l0.8-0.3l0.7-0.3l1.6-0.3l0.5-0.5l0.5-0.7
		l0.6-0.7l3.4-0.6l1,0l0.9-0.2l0.8-0.3l0.6-0.6l1-0.3l1.5,0l4.1,1.1l1.2,0.9l1,0.4l1,0l1-0.3l1.2-0.2l0.7,0.4l0.4,0.8l0.3,1l0.4,0.9
		l0.5,0.9l0.8,0.1l1,0l0.9-0.3l0.8-0.4l1.5-1l0.9-0.2l0.6,0.3l0.5,0.6l0.5,0.1l0.2-0.6l0.2-0.9l0.3-0.9l1.2-0.8l0.4-0.4l0.2-0.3
		l0.2-0.9l3.3-6.4l-0.1-2.4l-0.6-0.6l-0.6-0.4l-0.9,0l-0.8,0.1l-0.6,0l-0.4-0.5l-0.1-0.8l0.2-0.8l1.1-2.4l0.2-1v-0.1l0.2-1.3
		l1.4-3.8l1.5-2.5l0.5-1.2l1.3-4l0.2-1.1l0.3-1l0.6-0.7l2.2-0.6l0.7-0.6l0.1-1.1l-0.5-0.7l-0.8-0.5l-0.8-0.2l-0.4-0.6l0.1-1.8
		l-0.3-0.7l-0.1-0.8l0.4-1l2-3.4l0.4-1.4l0.3-2.2v-1.1l-0.1-1l-0.3-0.9l-0.5-0.7l-0.5-0.7l-0.3-0.6l0.4-0.7l4-2.3l1.4-1.1l0.7-0.8
		l0.8-1.1l1-2l0.5-1.4l0.4-2.5l2.1-7.9l2.7-7.2l7.7-12.1l23.3-24.2l0.9-1.2l0.4-0.8l1-1.5l5-5l1.2-1.5l0.6-1.2l0.1-0.6l0-1l-0.5-1.9
		l-0.8-1.6l-1-1.5l-0.6-0.7l-0.6-0.6l-4.2-3.3l-1.3-1.2l-1.1-1.4l-0.9-1.5l-0.3-0.9l-0.2-1l-0.1-1.1l0.1-1.1l0.5-2l0.7-1.8l1.2-1.1
		l1.8-1.3l4.4-2.1l3.9-1.5l13-1.8l0.9-0.3l1.1-0.7l1.5-1.3l32.3-45.2l2-1.8l2.7-0.6l24-0.5l1.7-0.5l2-2.2l0.6-0.9l1.2-1.3l1.3-0.8
		l2-0.9l8.9-3l2.2-1.3l2.2-1.8l1.1-1.2l3.5-4.5l1.3-1.2l1.4-1.1l3.2-1.2l10.3-1.8l-8-14.2l-3.5-4.5l-1-0.6l-1-0.5l-25.3-9.3
		l-18.7-3.3l-5.5-1.7l-1.6-0.8l-1.1-0.8l-1.2-1.3l-1.8-3.1l-3.2-7.8l-4.1-6.7l-3.1-3.3l-4.3-3.7l-2.1-1.2l-1.4-0.3l-0.7,0.5
		l-0.8,0.4l-3.7,1.3l-1.6,0.9l-2.7,2.4l-1,0.1l-1.3-0.2l-1.1-0.9l-0.7,0.1l-0.5,0.5l-0.9,1.7l-0.6,0.8l-0.7,0.6l-1.1,0.3l-0.8-0.3
		l-0.5-0.6l-0.3-0.7l-0.9-0.4l-1.3-0.2l-2.5-0.6l-1.6-0.7l-1.9-1.1l-1.1-0.2l-1.2,0.1l-1.6,0l-1.2,0.2l-0.9,0.4l-1.3,1.1l-0.9,0.1
		l-2.1-0.1l-2.4,0.3l-1.7,0l-0.9-0.4l-0.8-0.7l-1.4-1.8l-0.9-0.3l-0.9,0l-2.2,0.5l-1.4,0l-0.9-0.5l-1.6-1.7l-0.9-0.4l-5.1-0.7
		l-1.6,0l-1.1,0.4l-0.5,0.6l-1,1.5l-0.6,0.7l-2.3,1.5l-1.3,1.2l-0.5,0.7l-0.4,0.8l-0.7,1.9l-0.5,0.7l-0.7,0.5l-3.3,0.8l-2,0.1
		l-2.7,0.6l-1.7,0.1l-1.1,0.2l-1,0.3l-2,0.3l-0.9,0.3l-0.8,0.4l-1,0.3l-1,0.2l-3.5,0L434.2,686.4z"/>
	<path id="GH-UW" class="st0" d="M398.5,38.9l-2.2-0.9l-22.7-0.7l-3.1,1l-1.3,3.2l-2.1,1.2L339.2,43l-39.3,0.4l-40.4,0.4L216,44.2
		L181,44.5l-16.9,0.2l-3.9,0l-0.1-1.9l-15.5-0.3l0.3,1.1l-0.5,1.3l1.1,3.5l2,3.2l1.1,3.5l-1,4.2l-2.4,2.7l-2.9,2.2l-2.4,2.8
		l-1.3,3.8l-2,8.5l-3,4.9l-0.7,4.2l-1,1.7l-1.9,1.9l-0.6,1.1l0.4,1.8l0.2,0.8h0.4l0.8,0.2l0.8,0.4l0.5,0.8v1.2l-0.4,0.8l-0.5,0.7
		l-1.1,3l-2.4,4.4l-0.5,1.8l0.8,3.5l5.4,9.6l0.4,1.8l0.3,3.9l0.5,1.8l0.8,1.1l2.4,2.4l0.5,0.9l0.5,3.6l1.4,2.3l6.3,5.6l2.2,1.1
		l2.9,0.5l4.4,0.1l0.7,0.8l-0.8,1.7l-1.6,1.7l-2,0.8l-2.3,0.2l-1.7,0.6l-1.4,1.1l-1.3,1.7l-1.2,2.7l-0.9,3.7v3.8l1.5,3l1.6,0.7
		l1.8,0.2l1.5,0.4l0.6,1.2l0.4,2.1l1.2,0.4l1.6-0.1l1.7,0.7l1.8,1.1l1.2,0.5l0.6,1l0.1,2.4l-0.6,2.4l-1.3,1.6l-3.6,2.9l-2.4,3.8
		l-0.1,3.6l1.9,8.2v5.9v9.8l0.9,3.7l4.1,6.1l1.2,3.3l-0.2,4.7l-1.7,8.3l0.8,4.6l4.3,6.9l0.5,1.8L162,259l-6.2,7l-3,6.1l-0.7,3.8
		l1.2,3.8l1.5,1.6l1,0.2l1-0.1l1.6,0.8l0.9,1.5l0.2,1.7l0.6,1.7l1.4,1.1l20.3-2.8l1.3-0.5l1.5-1l1.5-1.7l0.9-1.2l1-1.8l0.5-0.7
		l0.9-0.6l1.2-0.6l3.3-0.8l1.2-0.5l0.9-0.7l0.9-1.5l1.1-3.4l0.4-0.9l1-1.5l0.7-0.6l1.1-0.6l1.4-0.7l2.8-0.8l2.7-0.5l8.9-0.1l2.2-0.3
		l16.6-5.2l1-0.1l16,1.2l1.1-0.1l5.8-1.7l2.1-0.3l2.4-0.1l4.7,0.4l2.1,0.5l4.4,0.6l6.8-0.2l23.4-5.2l11.6,0.8l2.3-0.2l2.9-0.5h0.7
		l10,1.3l4.4-0.1l1.1-0.6l1.1-1l1.5-2.6l1.2-1.5l1.6-1.2l4.2-1.3l0.9-0.4l0.6-0.8l0.6-1.2l0.4-2l0.7-2l0.3-1.5l0.1-1.3l-0.2-1.1
		l-0.3-1l-1.5-2.2l-0.3-0.8l-0.1-0.9l0.1-0.9l-0.3-3.1l0.1-1.1l0.7-1.9v0l0.4-0.8l0.5-0.8l0.8-0.7l1.5-0.7l1.2-0.3l2.4-1.4l1-0.1
		l1.1,0.1l1,0.2l1.1,0l1-0.4l0.6-0.8l0.2-1.4l-0.5-0.7l-0.9-0.5l-3-0.8l-0.5-0.5l0.2-0.6l1.1-0.4l2.3-0.4l0.9-0.3l0.9-0.2l0.9,0.2
		l1.8,0.7l1.1,0.1l1.1,0l0.9-0.1l0.8-0.2l2.3-1.2l1.9-0.7l0.7-0.6l0.5-1.1l-0.7-1.3l-1.4-1.5l-13.7-12.2l-1.1-1.3l0-1.2l0.5-1.2
		l2.9-5.3l0.4-1.3l0.2-1.1l0.5-7.1l0.5-2.2l0.4-1l1-1.9l1.7-2.4l2.2-2.3l7.2-5.4l2.5-2.5l1.1-1.5l3.6-6.8l2.4-3.1l0.6-0.5l0.8-0.5
		l1.3-0.4l1.2-0.2l1.2,0l2.4,0.3l3.9,1.5l6.5,3.4l5.8,1.9l1.3-1.2l0.2-1l0.3-3l-0.4-3.7l-0.9-3.2l-0.8-1.5l-0.8-1l-1.7-0.8l-1-0.1
		l-0.9,0.2l-0.8,0.5l-1.7,2l-0.6,0.5l-0.5,0.2h-0.4l-0.4-0.3l-1.8-1.7l-1.5-0.9l-1.4-1.1l-0.6-0.6l-0.4-0.8l-0.6-1.9l-0.1-1l0.3-1.7
		l0.1-1.2l-0.5-1.2l-0.7-0.6l-2.5-1.3l-1-0.2l-2.1-0.3l-0.9-0.4l-0.6-0.5l-0.8-1l-0.5-0.5l-0.6-0.5l-0.9-0.4l-0.7-0.6l-0.4-0.8
		l-0.3-0.9l-0.4-0.8l-0.6-0.7l-0.8-0.4l-1.1-0.1l-1.1,0l-1.1-0.2l-0.7-0.5l-0.5-0.7l-0.7-1.8l-0.4-0.8l-0.4-0.9l-0.3-1l-1-6.4
		l-0.3-0.9l-0.8-1.7l-0.2-1.3l-0.1-1.7l0.9-5.2l0.5-1.8l0.7-1.5l1.7-1.9l1.2-0.9l1.1-0.6l1.7-0.8l1-0.7l2.6-3l2.5-2.3l0.3-0.8
		l0.2-1.1L385,78l0.3-1.6l1.3-1.8l2.7-2L390,72l0.8-0.5l0.9-0.3l0.8-0.7l0.6-1.2l0.1-7.6l-0.3-1l-0.1-1l0.2-1l0.7-1.3l0.4-1.5
		l0.1-2.5l-0.3-2.8l0.9-3.6L398.5,38.9z"/>
	<path id="GH-UE" class="st0" d="M600,12.3l-0.5,3l0.7,1.7l0.4,1.7l-1.4,2.7l-2.3,2.2l-9,6.6l-3.2-3.9l-3.4-2.8h-3.5l-3.5,4.4
		l-0.8,2.7l-0.4,4.2l-1,1.9l-2.1,1.7l-4.7,2.3l-1.7,2.1v0l-0.5,0.5l-0.5,0.4l-0.6,0.3l-0.6,0.2l-7-0.2l-3.7,0.4l-2.6,1l-1.7,3.1
		l-1.3,4.5l-1.8,4.1l-3.2,2l-8.6-8.3l0.5-1.3l1.3-1.4l0.8-1.5l-1.1-1.3l-1.7-0.2l-1.3,0.5l-0.8-0.2l-0.2-2.1l-1.3,0l-20.5-0.4v0
		l-0.9-1.3l-1-0.4l-1.1,0.5l-1,1.3l-3.8,0.6l-4,4.5l-3.1,0.4l1.2-2.5l-1.9,0.1l-0.9-0.6l-1.3-2.5l-1.4-1l-1.5-0.3l-24.8-2l-5.1,0.8
		l-1.6,2.8L433.6,43l-22.9-0.2l-4.5-0.8l-6-2.3l-1.8-0.7l-3.5,7.9l-0.9,3.6l0.3,2.8l-0.1,2.5l-0.4,1.5l-0.7,1.3l-0.2,1l0.1,1l0.3,1
		l-0.1,7.6l-0.6,1.2l-0.8,0.7l-0.9,0.3L390,72l-0.6,0.7l-2.7,2l-1.3,1.8L385,78l-0.1,2.3l-0.2,1.1l-0.3,0.8l-2.5,2.3l-2.6,3l-1,0.7
		l-1.7,0.8l-1.1,0.6l-1.2,0.9l-1.7,1.9l-0.7,1.5l-0.5,1.8l-0.9,5.2l0.1,1.7l0.2,1.3l0.8,1.7l0.3,0.9l1,6.4l0.3,1l0.4,0.9l0.4,0.8
		l0.7,1.8l0.5,0.7l0.7,0.5l1.1,0.2l1.1,0l1.1,0.1l0.8,0.4l0.6,0.7l0.4,0.8l0.3,0.9l0.4,0.8l0.7,0.6l0.9,0.4l0.6,0.5l0.5,0.5l0.8,1
		l0.6,0.5l0.9,0.4l2.1,0.3l1,0.2l2.5,1.3l0.7,0.6l0.5,1.2l-0.1,1.2l-0.3,1.7l0.1,1l0.6,1.9l0.4,0.8l0.6,0.6l1.4,1.1l1.5,0.9l1.8,1.7
		l0.4,0.3h0.4l0.5-0.2l0.6-0.5l1.7-2l0.8-0.5l0.9-0.2l1,0.1l1.7,0.8l0.8,1l0.8,1.5l0.9,3.2l0.4,3.7l-0.3,3l-0.2,1l-1.3,1.2l0.3,1.6
		l0.6,1.7l0.5,0.8l0.6,0.6l0.8,0.5l0.8,0.4l0.7,0.5l0.6,0.7l0.7,1.8l0.4,0.8l0.7,0.6l1,0.3l1,0.1l1,0.3l0.8,0.4l0.7,0.6l3.2,1.8
		l0.9,0.4l1.1,0.2l2.9-0.1l1.2,0.1l0.8,0.5l0.4,0.8l0.3,0.9l0.8,0.5l1.1,0.1l2.4-1.4l1.2-1l0.8-1.1l0.3-1l0.2-1.1l0-1.2l-0.2-2.2
		l-1.3-6.1l-0.1-1.1l0-1l0.2-1l0.4-0.9l1-1.5l1.3-1.2l6.2-3.1l1.4-1.2l0.8-1.1l0.8-3l0.8-1.8l0.5-0.7l0.6-0.7l0.7-0.6l1.5-1l18.8-7
		l2.1-0.5l1.3-0.1l1.9,0.3l2.4,0.7l2.3,0.3l1,0.2l0.8,0.4l0.8,0.5l1.1,0.4l1.6,0.2l2.7-0.1l1.1,0.5l0.2,0.7l-0.4,0.7l-0.9,1l0,0
		l0,0.1l-2.1,2.1l-0.4,0.7l0,0.8l0.7,0.4l1.2-0.2l1.9-1l2-1.5l0.5-0.6l0.9-0.7l0,0l7.1-6.5l0.5-0.8l0.4-0.9l0.6-1.9l0.5-0.7l0.8-0.9
		l0.4-0.6l0.3-0.8l0.2-2l0.3-1l0.8-0.7l1.2-0.6l2-0.8l1.1-0.7l0.8-0.8l0.4-0.9l0.4-3.4l0.3-1l1.1-0.6l1.8-0.3l10.8,0.3l1.5,0.5
		l1.1,0.6l0.5,0.8l0.3,0.9l-0.1,1l-0.4,0.8l-0.6,0.6l-0.4,0.7l-0.2,0.8l0.2,0.9l0.4,0.8l0.7,0.6l0.7,0.5l0.7,0.6l0.5,0.8l0.3,0.9
		l0.2,1l0,1.1l-0.2,1l-0.3,1l-0.4,0.9l-0.5,0.7l-1.9,1.9l-0.4,0.8l-0.1,0.9l0.3,0.8l0.7,0.4l0.8-0.1l1.6-1.2l1,0.2l0.7,0.6l0.9,0.4
		l1.1-0.1l1.6-1.1l0.9-0.9l1.2-1.7l0.8-0.6l1.2-0.4l5.9,0l2.7,0.9l1-0.1l1.1-0.4l2.3-1.8l1.1-0.6l1.2-0.3l2,0l1.1,0.4l0.9,0.6
		l0.8,0.4l1.1-0.1l1.1-0.5l1.2-1.2l0.6-0.9l0.4-0.9l1.1-5.6l0.4-0.9l0.4-0.8l0.5-0.7l0.7-0.5l0.9-0.2l1.2,0.4l0.8,0.6l1.3,1.3
		l0.8,0.4l1,0.2l3.3,0.3l1.2,0l4.4-1.2l8.3-3.7l1.5-0.2l1.4-0.9l2.3-0.8l18.3-3.9l8.7-0.7l11.4-5.9l3.5-0.8l0.1,0l0.6-2.6l1-7.7
		l1.4-3.2l2.5-3.2l3.7-2.5l1.5-1.5l0.3-1.9l-0.9-3.6l-0.1-1.8l3.9-18.4l0.9-1.7l1.4-1.5l1.6-1l1.3-1.3l0.4-2.3l0.5-6.5l-0.6-5.7
		l-2.7-4.3l-6-2.3l-3.4,0.1l-6.1,1.6l-3.3,0.3l-3.3-0.9l-3.6-2l-3-2.8l-1.3-3L600,12.3z"/>
	<path id="GH-NP" class="st0" d="M686.5,152.9l-0.5-0.6l-9.2-17.1l-2.8-3l-9.5-6l-1.5-1.8l-2.1-4.1l-1.4-1.7l-1.6-1l-5.6-1.9
		l-1.6-1.1l-1.1-1.1l-1.3-0.9l-4.2-0.5l-2.1-0.6l-2-0.9l-1.6-1.3l-1.8-3.8l0.1-3.8l1.1-4.6l-0.1,0l-3.5,0.8l-11.4,5.9l-8.7,0.7
		l-18.3,3.9l-2.3,0.8l-1.4,0.9l-1.5,0.2l-8.3,3.7l-4.4,1.2l-1.2,0l-3.3-0.3l-1-0.2l-0.8-0.4l-1.3-1.3l-0.8-0.6l-1.2-0.4l-0.9,0.2
		l-0.7,0.5l-0.5,0.7l-0.4,0.8l-0.4,0.9l-1.1,5.6l-0.4,0.9l-0.6,0.9l-1.2,1.2l-1.1,0.5l-1.1,0.1l-0.8-0.4l-0.9-0.6l-1.1-0.4l-2,0
		l-1.2,0.3l-1.1,0.6l-2.3,1.8l-1.1,0.4l-1,0.1l-2.7-0.9l-5.9,0l-1.2,0.4l-0.8,0.6l-1.2,1.7L536,129l-1.6,1.1l-1.1,0.1l-0.9-0.4
		l-0.7-0.6l-1-0.2l-1.6,1.2l-0.8,0.1l-0.7-0.4l-0.3-0.8l0.1-0.9l0.4-0.8l1.9-1.9l0.5-0.7l0.4-0.9l0.3-1l0.2-1l0-1.1l-0.2-1l-0.3-0.9
		l-0.5-0.8l-0.7-0.6l-0.7-0.5l-0.7-0.6l-0.4-0.8l-0.2-0.9l0.2-0.8l0.4-0.7l0.6-0.6l0.4-0.8l0.1-1l-0.3-0.9l-0.5-0.8l-1.1-0.6
		l-1.5-0.5l-10.8-0.3l-1.8,0.3l-1.1,0.6l-0.3,1l-0.4,3.4l-0.4,0.9l-0.8,0.8l-1.1,0.7l-2,0.8l-1.2,0.6l-0.8,0.7l-0.3,1l-0.2,2
		l-0.3,0.8l-0.4,0.6l-0.8,0.9l-0.5,0.7l-0.6,1.9l-0.4,0.9l-0.5,0.8l-7.1,6.5l0,0l-0.9,0.7l-0.5,0.6l-2,1.5l-1.9,1l-1.2,0.2l-0.7-0.4
		l0-0.8l0.4-0.7l2.1-2.1l0-0.1l0,0l0.9-1l0.4-0.7l-0.2-0.7l-1.1-0.5l-2.7,0.1l-1.6-0.2l-1.1-0.4l-0.8-0.5l-0.8-0.4l-1-0.2l-2.3-0.3
		l-2.4-0.7l-1.9-0.3l-1.3,0.1l-2.1,0.5l-18.8,7l-1.5,1l-0.7,0.6l-0.6,0.7l-0.5,0.7l-0.8,1.8l-0.8,3l-0.8,1.1l-1.4,1.2l-6.2,3.1
		l-1.3,1.2l-1,1.5l-0.4,0.9l-0.2,1l0,1l0.1,1.1l1.3,6.1l0.2,2.2l0,1.2l-0.2,1.1l-0.3,1l-0.8,1.1l-1.2,1l-2.4,1.4l-1.1-0.1l-0.8-0.5
		l-0.3-0.9l-0.4-0.8l-0.8-0.5l-1.2-0.1l-2.9,0.1l-1.1-0.2l-0.9-0.4l-3.2-1.8l-0.7-0.6l-0.8-0.4l-1-0.3l-1-0.1l-1-0.3l-0.7-0.6
		l-0.4-0.8l-0.7-1.8l-0.6-0.7l-0.7-0.5l-0.8-0.4l-0.8-0.5l-0.6-0.6l-0.5-0.8l-0.6-1.7l-0.3-1.6l-5.8-1.9l-6.5-3.4l-3.9-1.5l-2.4-0.3
		l-1.2,0l-1.2,0.2l-1.3,0.4l-0.8,0.5l-0.6,0.5l-2.4,3.1l-3.6,6.8l-1.1,1.5l-2.5,2.5l-7.2,5.4l-2.2,2.3l-1.7,2.4l-1,1.9l-0.4,1
		l-0.5,2.2l-0.5,7.1l-0.2,1.1l-0.4,1.3l-2.9,5.3l-0.5,1.2l0,1.2l1.1,1.3l13.7,12.2l1.4,1.5l0.7,1.3l-0.5,1.1l-0.7,0.6l-1.9,0.7
		l-2.3,1.2l-0.8,0.2l-0.9,0.1l-1.1,0l-1.1-0.1l-1.8-0.7l-0.9-0.2l-0.9,0.2l-0.9,0.3l-2.3,0.4l-1.1,0.4l-0.2,0.6l0.5,0.5l3,0.8
		l0.9,0.5l0.5,0.7l-0.2,1.4l-0.6,0.8l-1,0.4l-1.1,0l-1-0.2l-1.1-0.1l-1,0.1l-2.4,1.4l-1.2,0.3l-1.5,0.7l-0.8,0.7l-0.5,0.8l-0.4,0.8
		v0l-0.7,1.9l-0.1,1.1l0.3,3.1l-0.1,0.9l0.1,0.9l0.3,0.8l1.5,2.2l0.3,1l0.2,1.1l-0.1,1.3l-0.3,1.5l-0.7,2l-0.4,2l-0.6,1.2l-0.6,0.8
		l-0.9,0.4l-4.2,1.3l-1.6,1.2l-1.2,1.5l-1.5,2.6l-1.1,1l-1.1,0.6l-4.4,0.1l-10-1.3h-0.7l-2.9,0.5l-2.3,0.2l-11.6-0.8l-23.4,5.2
		l-6.8,0.2l-4.4-0.6l-2.1-0.5l-4.7-0.4l-2.4,0.1l-2.1,0.3l-5.8,1.7l-1.1,0.1l-16-1.2l-1,0.1l-16.6,5.2l-2.2,0.3l-8.9,0.1l-2.7,0.5
		l-2.8,0.8l-1.4,0.7l-1.1,0.6l-0.7,0.6l-1,1.5l-0.4,0.9l-1.1,3.4l-0.9,1.5l-0.9,0.7l-1.2,0.5l-3.3,0.8l-1.2,0.6l-0.9,0.6l-0.5,0.7
		l-1,1.8l-0.9,1.2l-1.5,1.7l-1.5,1l-1.3,0.5l-20.3,2.8l0.6,0.5l-2.3,2l-1.5,2.7l-0.9,3l-0.3,2.9l0.3,3l0.9,1.9l6.4,5.9l6.5,8.2
		l2.4,3.1l0.2,2.6l-0.7,5.8l0.2,1.4l0.9,3v4.9l-0.9,3.1l-2.1,1.4l-2.4,1.2l-1.9,2.4l-0.3,3.4l1.4,2.8l2.5,1.9l3.1,0.7l2.8,1.6
		l-0.2,3.5l-2.2,3.5l-5.7,3l-2.1,3.3l-3.1,6.4l-3.8,3.9l-0.8,1.5l-0.3,9.1l-0.7,2.9l-1.7,2.6l1.8,1l1.1,1.2l1.4,1l2.5,0.4l4.6,0.2
		l4.5,1l4.5,2.4l1.2,2.9l0.2,3.7l2.8,8.5l1.1,0.8l1.2,0.2l1,0.4l0.4,1.6l0.2,3.1l3.7,12.7l-0.2,2.5l-1.9,1.1l-1.3,1.2l-0.5,2.3
		l0.9,1.4l0,0.1l1.6-0.8l1.1-0.6l0.5,0.8l0.5,0.3l1.4,0.3l3.8,2l7.2,7.9l0.1-0.2l0.7-0.1l0.9,0.1l0.7,0.3l2.5,2.5l5.2,9.9l6.7,5.2
		l1.5,4.1l1,2l4.3,2.6l1,1.5l0.4,1.9l3.2,6.3l-1.1,3.4l1.4,3l2.2,2.7l1.1,2.7l0.8,1.2l3.4,1.1l0.8,1.5l0.3,1.6l2.2,4l1.7,6.5
		l1.4,11.4l1.7,2.4l2.4,1.8l2.7,1.5l2.5,2.4l5.1,6.3l5.5,2.9l4.6,7.8l3.1,3l6.5,1.6l7.8-0.1l17.1-3.5l0.8-0.5l1.1-1.2l3-5l1.5-1.5
		l2.2-3.3l2.9-3.4l3.7-1.8l4.4,0.5l7.2,3.5l3.9,0.9l3.4-1l1.8-2.5l0.6-3.2l-0.1-3.3l-3-6.8l-5.6-1.3l-6.9,0.6l-6.8-1.2L315,526
		l-1.5-2.5l-1-3.1l-0.4-3.3l-0.4-1.4l-0.8-1.5l-0.3-1.6l0.9-1.7l2.5-3l1-1.8l0.8-2.1l0.5-3.4l-0.5-10.9l0.2-3.9l0.8-3.8l1.5-3.5
		l2.3-3.1l7.3-3.2l13.4,4.3l5.3-2.4l2.3-0.6l1.3-1.1l0.6-0.7l0.4-0.9l0.6-1.9l0.4-0.8l0.5-0.7l0.9-0.7l1.3-0.6l2.2-0.6l1.4,0
		l10.7,2.1l1.8,0.1l4.4-0.5l2-0.5l3.4-1.5l1.6-0.9l0.7-0.6l0.6-0.7l0.4-0.9l1-5.3l0.3-0.9l0.4-0.9l0.5-0.8l0.6-0.7l0.6-0.6l2.9-1.9
		l4.4-0.6l9.6-0.4l2.2,0.1l2,0.5l1.7,0.8l0.7,0.6l1.3,1.2l0.7,0.6l1.6,1.8l2.6,2.2l9,6l1.5,0.8l3.1,1l3.8,0.8l2.7,0.2h3.8l1.5,0.4
		l0.9,0.7l1,2.8l0.9,4l2.6,6.1l0.7,2.9l0.1,0.9v1l-0.2,1l-0.7,1.8l-1.9,3.5l-1.1,1.3l-9.2,8.3l-1.1,1.4l-0.9,1.7l-0.3,1l-0.2,1.1
		l-0.1,6l-0.2,1.1l-0.3,1l-0.4,0.8l-0.6,0.8l-0.5,0.6l-1.3,1.2l-0.7,0.5l-1.3,1.2l-1.1,1.5l-0.5,0.8l-0.4,0.8l-0.2,0.9l0.9,1.3
		l1.8,1.7l4.9,3.2l2.4,3.2l1.9,3.3l19.1,53.7l1,1.6l1.3,0.7l1.9,0.5l1.2,0.7l1.4,1l0.9,0.2l0.6-0.5l0.9-1.5l1.1-1.4l1.5-3l0.3-0.4
		l0.6-0.4l0.7-0.5l0.9-0.4l0.8-0.6l0.6-0.9l0.3-1.1l0.2-1.2l-0.1-4.4l-0.2-1l-0.3-0.9l-0.7-1.6l-1.9-3.1l-0.8-1.6l-0.4-2v-1.2
		l0.1-1.1l0.2-1l0.3-0.9l0.4-0.8l0.5-0.8l0.7-0.6l0.8-0.5l1.6-0.7l5.7-1.4l0.9-0.4l1.4-1l2.6-2.5l1.1-1.4l0.9-1.6l2.9-7.6l0.5-0.8
		l0.5-0.7l0.5-0.6l1.5-1.2l1.6-1l1.7-0.8l2.6-0.8l0.8-0.4l0.8-0.5l1.3-1.2l1.2-1.3l2.3-3l1.2-1.3l0.6-0.5l0.5-0.3l0.6-0.2l0.8-0.1
		l1-0.1l2.2,0.1l3.5,0.6l2.3,0.1l1.8-0.1l4-0.8l4-0.3l1.2,0.2l1,0.3l0.8,0.4l1.4,1.1l3,3.1l2.1,2.8l0.6,0.6l0.5,0.7l0.6,0.7l0.5,0.7
		l18.6,15.1l10,5.8l3.3,1.2l7.3,1.1l3.2-0.2l1.9-0.6l3.8-3.8l3.6-7.9l1.2-1.2l1.1-0.5l2,0.4h1.4l1.7-0.2l6.3-2.1l1.2,0l1,0.3l4.3,2
		l0.9,0.3l1.4,0.2l1.7,0l3-0.6l1.4-0.9l1.1-1.2l0.8-1.3l1-0.6l1.4-0.5l0.5-0.8l0.4-1l1.9-3.2l0.2-1l0-1.1l-0.2-1l0.3-1.3l0.9-1.3
		l2.7-2.4l1.8-1.3l1.4-0.8l8-2.8l3.7-0.1l4.4,0.8l3.8,1.2l2.9,1.3l6.3,4.1l2.6,2.5l1.6,2l3.9,3.8l2.2,1.6l2,0.2l3.2,0l7.2-0.8
		l2.9-0.8l1.7-1l0.3-1l0-1l-0.1-0.8l-0.4-0.8l-1.2-7.4l0.1-1.1l0.5-1.2l0.9-0.6l1.1-0.2l5.6-0.2l1.1-0.5l0.7-0.7l0.2-1l0.1-1.1
		l-0.3-2.1l-0.4-0.9l-1.9-3l-0.6-0.7l-0.8-0.5l-0.9-0.4l-1-0.3l-1.1-0.1l-5.4,0.7l-3.9,1l-4.2,0.6l-0.9,0l-2-0.3l-2-0.6l-0.8-0.4
		l-0.7-0.5l-0.4-0.6l-0.1-0.9l0.4-2V513l-0.4-2l-0.7-1.9l-0.1-1.1l0.4-1.5l0.7-0.8l1.1-0.6l1.3-0.3l1.8-0.6l0.9-0.8l0.5-0.9l-0.1-1
		l-0.4-0.8l-0.7-0.6l-3.4-1.6l-0.7-0.5l-0.5-0.7l-0.3-0.9v-1l0.1-1l0.3-1l2-5.7l1.3-2.8l1.9-3l1-0.8l1-0.3l0.9,0.3l1.6,0.9l1,0.3
		h1.2l1.6-0.6l0.6-0.9l0.2-1.1l-0.2-1L685,478l-0.6-0.6l-2-1.8l-1-1.5l-0.4-0.8l-0.3-1l-0.2-1l0.3-1.4l0.7-1.5l3.6-4.7l1.5-2.9
		l1.2-3.1l0.8-1.4l0-1l-0.3-0.9l-0.5-0.8l-0.7-0.8l0.1-1l0.3-1.2l0.6-0.7l0.6-0.5l4.4-1.8l1.8-0.4l1,0l1,0.2l0.9,0.3l4.2,2.4l1,0.3
		l1.1,0.2h1.1l1.1-0.1l5.7-1.2l1.1-0.1l7,1h0.1h0.1l-0.4-2.3l1.2-1.7l2.3-0.4l2.1,0.8l1.9,4.1l1.9-2.1l1.2-3l-1-0.7l1.9-0.6l1.7,0.2
		l1.8,0.6l2.3,0.4l2-1l0.6-2.4l0.3-2.8l0.9-2.3l0,0l4-5.7l-2.3-8.9l-8.7-14.8v0h0l-2.4-5.6l1.8-5.6l3-5.6l1-5.9l0-2.8l1.1-1.8
		l4.1-3.6l2.2-3.7l0-2.9l-2.2-6.5l0.2-3.6l1.5-1.7l2-1.2l1.8-1.9l0.8-2.3l0.3-5.3l1.7-9.2l-1.1-4.3l-3.3-2.9l-5.3-1.8l-0.1-0.2
		l0-0.2l0-0.2l1.2-2l0.4-1.9l-0.3-1.8l-1.1-1.6l-9.5-3.5l-3.4-0.6l-7.2,0.4l-4,0.7l-2.7,1.2l-0.9,1.4l-0.5,3.7l-0.7,1.6l-1.4,1.2
		l-8.2,2.9l-3.3,0.7l-3.3-0.4l-0.8-2.4l1.5-2.1l-1.3-2.9l0-2.6l7.5-1.5l2.8-1.1l2.3-1.6l0.7-1.9l-1.6-2l-2.5-0.1l-4.6,0.9l-1.9-0.8
		l-1.8-1.3l-1.3-1.1l-0.5-0.5l-0.1-1.2l0.8-5.1l0.4-1.2l9,1l4.3-0.3l3.2-2.1l2.5,1.6l3.3,0.6l2.9-0.8l1.3-2.5l-1.5-3.8l-3.6-0.7
		l-7.3,1.9l-5.6-0.6l-2.9-3.8l-0.1-5.3l2.6-5.2l4.8,5.1l3,1.7l3.2-0.4l1.9-2.3l0.5-3.2l-0.4-3.3l-0.8-2.7l-1.2-1.8l-1.3-1.4l-0.9-2
		l-0.3-3.4l3.8-14.2l0-2.1l-0.8-7.3l0.4-2.5l1.5-2.8l2.3-2.5l1.3-1.1l0.1-1.5l-1.2-3.6l-2.2-4.3l-0.3-1.2l0.3-1.7l0.6-1.1l0.1-1.2
		l-1.1-1.8l3.1-0.6l2.8,0.5l2-0.5l0.1-0.6l0.6-3l-0.5-3.7l-1.5-1.2l-2-0.5l-2.3-1.5l-1.8-4.7l1-12.9l-0.3-6.1l1.3-2.5l0.5-3l0.9-2.8
		l4.4-3.3l-3.7-3.1l-1.7-0.8l-7.9,1.3l-2.5,0l1.6-3.7l-1.9-2.9l-3.1-2.8l-2-3.3l0.3-1.6l0.6-1.9l-0.1-2l-1.8-1.8l-1.8-0.4l-1.6,0.5
		l-1.7,0.8l-2,0.5l-1.7-0.2l-4.8-1.9l-0.5,0.5l-0.5,1.2l-0.8,1.1L686.5,152.9z"/>
</g>
</svg>
